<svg viewBox="0 0 12.5469 12.8" fill="none" xmlns="http://www.w3.org/2000/svg" xmlns:xlink="http://www.w3.org/1999/xlink" x="0" y="0"><g id="Group 1">
<path id="Vector" d="M12.5472,6.547c0,-0.435 -0.036,-0.872 -0.111,-1.3h-6.036v2.464h3.456c-0.143,0.795 -0.604,1.498 -1.279,1.945v1.599h2.063c1.211,-1.115 1.907,-2.761 1.907,-4.708z" fill="#4285F4"/>
<path id="Vector_2" d="M6.3992,12.8c1.726,0 3.182,-0.567 4.243,-1.545l-2.063,-1.599c-0.573,0.39 -1.314,0.611 -2.177,0.611c-1.67,0 -3.085,-1.126 -3.593,-2.64h-2.129v1.648c1.087,2.161 3.3,3.525 5.719,3.525z" fill="#34A853"/>
<path id="Vector_3" d="M2.8062,7.627c-0.268,-0.795 -0.268,-1.656 0,-2.451v-1.648h-2.125c-0.908,1.808 -0.908,3.939 0,5.747z" fill="#FBBC04"/>
<path id="Vector_4" d="M6.3992,2.533c0.913,-0.014 1.795,0.329 2.455,0.959l1.828,-1.827c-1.157,-1.086 -2.693,-1.683 -4.283,-1.665c-2.419,0 -4.632,1.364 -5.719,3.528l2.126,1.648c0.506,-1.517 1.924,-2.643 3.593,-2.643z" fill="#EA4335"/>
</g></svg>